<svg width="100" height="30" viewBox="0 0 100 30" fill="none" xmlns="http://www.w3.org/2000/svg">
  <path d="M40.1 15.5C40.1 11.9 43 9.6 47.1 9.6C51.2 9.6 54.1 11.9 54.1 15.5C54.1 19.1 51.2 21.4 47.1 21.4C43 21.4 40.1 19.1 40.1 15.5ZM51.2 15.5C51.2 13.4 49.6 12 47.1 12C44.6 12 43 13.4 43 15.5C43 17.6 44.6 19 47.1 19C49.6 19 51.2 17.6 51.2 15.5Z" fill="white"/>
  <path d="M54.8 19.6C55 18.3 56.4 17.4 58.4 17.4C60.4 17.4 61.7 18.3 61.7 19.6C61.7 20.9 60.4 21.8 58.4 21.8C56.4 21.8 55 20.9 54.8 19.6ZM64.6 19.4C64.6 17 62.2 15.7 58.4 15.7C54.6 15.7 52.1 17 52.1 19.4C52.1 21.8 54.5 23.1 58.4 23.1C62.3 23.1 64.6 21.8 64.6 19.4ZM59.4 15.2L60.3 13.5H62.9L60.8 9.8H58.1L53.8 18.7H56.5L57.6 16.3H61.1L59.4 15.2ZM58.2 14.5L59.2 12.3L60.2 14.5H58.2Z" fill="white"/>
  <path d="M64.7 21.2H67.5V15.9H71.7C71.8 15.9 71.9 15.9 72 15.9V13.3H67.5V11.8C67.5 10.9 68 10.5 69 10.5H72V7.9H69C65.9 7.9 64.7 9.1 64.7 11.8V21.2Z" fill="white"/>
  <path d="M80.3 13.3H76.7V11.8C76.7 10.9 77.2 10.5 78.2 10.5H80.3V7.9H78.2C75.1 7.9 73.9 9.1 73.9 11.8V13.3H72V15.9H73.9V21.2H76.7V15.9H80.3V13.3Z" fill="white"/>
  <path d="M89.5 21.2V13.3H86.7V18.5C86.7 19.4 86.2 19.8 85.2 19.8H83.1V13.3H80.3V21.2H85.2C88.3 21.2 89.5 20 89.5 17.3Z" fill="white"/>
  <path d="M30.5 8.3C30.2 8.6 29.5 9.5 29.5 10.8C29.5 12.3 30.4 13.7 31.7 14.5C32.3 14.9 32.7 15.1 33.5 15.5C33.3 15.7 32.8 16.4 32.1 17.3C31.1 18.7 30 20.5 30 22.9C30 25.2 31.1 26.4 32.1 27.1C32.8 27.5 33.6 27.8 34.4 27.8C35.1 27.8 35.7 27.6 36.2 27.3C36.6 27.1 37 26.9 37.5 26.9C37.9 26.9 38.3 27.1 38.6 27.3C39.1 27.6 39.6 27.8 40.2 27.8C41 27.8 41.8 27.5 42.6 27.1C43.6 26.5 44.7 25.3 44.7 22.9C44.7 20.9 43.8 19.1 42.9 17.8C42.2 16.8 41.5 16 41.1 15.5C41.9 15.1 42.4 14.8 42.9 14.5C44.3 13.7 45.2 12.3 45.2 10.8C45.2 9.4 44.5 8.5 44.1 8.1C43.5 7.5 42.6 7.2 41.7 7.2C40.9 7.2 40.2 7.5 39.6 7.8C39.1 8.1 38.6 8.3 38.2 8.3C37.7 8.3 37.2 8.1 36.7 7.8C36.1 7.5 35.5 7.2 34.6 7.2C33.7 7.2 32.6 7.6 31.9 8.3H30.5Z" fill="white"/>
  <path d="M38.1 6.2C38.8 5.3 39.2 4.2 39.2 3C39.2 2.9 39.2 2.7 39.2 2.6C38 2.7 36.7 3.5 36 4.5C35.4 5.2 34.9 6.3 34.9 7.5C34.9 7.6 34.9 7.8 34.9 7.9C35 7.9 35.1 7.9 35.2 7.9C36.2 7.9 37.4 7.1 38.1 6.2Z" fill="white"/>
</svg>