<svg width="100" height="24" viewBox="0 0 100 24" fill="none" xmlns="http://www.w3.org/2000/svg">
  <path d="M20 2C16.1 2 12.4 3.6 9.8 6.2C7.2 8.8 5.6 12.5 5.6 16.4C5.6 20.3 7.2 24 9.8 26.6C12.4 29.2 16.1 30.8 20 30.8C23.9 30.8 27.6 29.2 30.2 26.6C32.8 24 34.4 20.3 34.4 16.4C34.4 12.5 32.8 8.8 30.2 6.2C27.6 3.6 23.9 2 20 2ZM20 27.3C17.2 27.3 14.6 26.1 12.6 24.1C10.7 22.2 9.5 19.5 9.5 16.7C9.5 13.9 10.7 11.2 12.6 9.3C14.5 7.4 17.2 6.2 20 6.2C22.8 6.2 25.5 7.4 27.4 9.3C29.3 11.2 30.5 13.9 30.5 16.7C30.5 19.5 29.3 22.2 27.4 24.1C25.5 26 22.8 27.3 20 27.3Z" fill="#00B0B9"/>
  <path d="M20 12C17.8 12 16 13.8 16 16C16 18.2 17.8 20 20 20C22.2 20 24 18.2 24 16C24 13.8 22.2 12 20 12Z" fill="#00B0B9"/>
  <path d="M58.2 15.3H55.3V6.7H49.3V20.8H55.3V19C55.3 18.7 55.5 18.5 55.8 18.5H58.2C58.5 18.5 58.7 18.7 58.7 19V20.8H61.7V15.3H58.2Z" fill="#00B0B9"/>
  <path d="M46.7 6.7H43V20.8H46.7V6.7Z" fill="#00B0B9"/>
  <path d="M71.5 6.7H65.3V20.8H69V16.7H71.5C74.5 16.7 77 14.7 77 11.7C77 8.7 74.5 6.7 71.5 6.7ZM71.2 13.4H69V10H71.2C72.3 10 73.2 10.8 73.2 11.7C73.2 12.6 72.3 13.4 71.2 13.4Z" fill="#00B0B9"/>
  <path d="M86 6.7H79.5V20.8H83.2V16.3H86C89.3 16.3 92 14.1 92 11.5C92 8.9 89.3 6.7 86 6.7ZM85.7 13H83.2V10H85.7C86.8 10 87.8 10.7 87.8 11.5C87.8 12.3 86.8 13 85.7 13Z" fill="#00B0B9"/>
  <path d="M40.1 6.7H36.4V20.8H40.1V6.7Z" fill="#00B0B9"/>
</svg>