<svg width="100" height="24" viewBox="0 0 100 24" fill="none" xmlns="http://www.w3.org/2000/svg">
  <path d="M29.4 5.5H34.9V7.7H31.8V9.6H34.5V11.8H31.8V13.7H35.0V15.9H29.4V5.5Z" fill="#E31837"/>
  <path d="M42.6 13.9L41.0 10.2L39.4 13.9H42.6ZM36.7 15.9L41.0 5.5L45.3 15.9H36.7Z" fill="#E31837"/>
  <path d="M50.5 9.4C50.5 8.3 49.6 7.7 48.4 7.7H47.1V11.1H48.4C49.6 11.1 50.5 10.4 50.5 9.4ZM45.0 15.9V5.5H48.6C51.3 5.5 53.1 7.1 53.1 9.3C53.1 11.5 51.3 13.1 48.6 13.1H47.1V15.9H45.0Z" fill="#E31837"/>
  <path d="M59.4 5.5H55V9.2H53.5V5.5H61.0V9.2H59.4V5.5ZM59.4 10.2H61.0V15.9H53.5V10.2H55V13.9H59.4V10.2Z" fill="#E31837"/>
  <path d="M62.1 15.9V5.5H64.2V15.9H62.1Z" fill="#E31837"/>
  <path d="M70.7 5.5H65.2V15.9H67.2V11.9H70.5V9.8H67.2V7.6H70.7V5.5Z" fill="#E31837"/>
  <path d="M77.5 5.5H71.9V15.9H77.5V13.7H74.0V5.5H77.5Z" fill="#E31837"/>
  <path d="M25.5 6.3C25.3 6.1 25.0 6.0 24.7 6.0C24.4 6.0 24.1 6.1 23.9 6.3L20.0 10.1V0.6C20.0 0.3 19.7 0.0 19.4 0.0H19.3C19.0 0.0 18.7 0.3 18.7 0.6V23.4C18.7 23.7 19.0 24.0 19.3 24.0H19.4C19.7 24.0 20.0 23.7 20.0 23.4V13.9L23.9 17.7C24.1 17.9 24.4 18.0 24.7 18.0C25.0 18.0 25.3 17.9 25.5 17.7L28.4 15.0C28.6 14.7 28.7 14.4 28.7 14.1C28.7 13.8 28.6 13.5 28.4 13.3L23.5 8.6C23.4 8.6 23.4 8.6 23.4 8.6L28.4 3.9C28.9 3.4 28.9 2.6 28.4 2.1L25.5 6.3Z" fill="#E31837"/>
</svg>