<svg width="100" height="24" viewBox="0 0 100 24" fill="none" xmlns="http://www.w3.org/2000/svg">
  <path d="M32.6 11.9C32.6 5.3 38.1 0 44.9 0C51.7 0 57.2 5.3 57.2 11.9C57.2 18.5 51.7 23.8 44.9 23.8C38.1 23.8 32.6 18.5 32.6 11.9ZM44.9 17.9C48.4 17.9 51.3 15.2 51.3 11.9C51.3 8.6 48.4 5.9 44.9 5.9C41.4 5.9 38.5 8.6 38.5 11.9C38.5 15.2 41.4 17.9 44.9 17.9Z" fill="#916DFF"/>
  <path d="M62.9 19.8L62.9 4H68.8L68.8 19.8H62.9Z" fill="#916DFF"/>
  <path d="M76.3 19.8V12.1C76.3 10.6 77.6 9.3 79.2 9.3C80.8 9.3 82.1 10.6 82.1 12.1L82.1 19.8H88V11.3C88 7.2 84.7 4 80.5 4C78.9 4 77.5 4.5 76.3 5.3V4H70.4V19.8H76.3Z" fill="#916DFF"/>
  <path d="M21.5 8.7L21.5 15.1L15.7 19.8H9.8L15.6 15.1L15.6 8.7L9.8 4L15.7 4L21.5 8.7Z" fill="#916DFF"/>
</svg>