<svg width="100" height="24" viewBox="0 0 100 24" fill="none" xmlns="http://www.w3.org/2000/svg">
  <path d="M19.5 4L24 12L19.5 20H5.5L1 12L5.5 4H19.5Z" fill="#009FFD"/>
  <path d="M14.5 8.5V12H12.25V15.5H9.75V12H7.5V8.5H9.75V11H12.25V8.5H14.5Z" fill="white"/>
  <path d="M35.264 7.312H39.184V16H41.584V7.312H45.504V5.2H35.264V7.312ZM52.7835 16V13.952H47.6315V11.568H52.1275V9.52H47.6315V7.248H52.7835V5.2H45.2315V16H52.7835ZM61.1866 16.16C62.9466 16.16 64.2666 15.68 65.1466 14.72C66.0266 13.76 66.4666 12.384 66.4666 10.592C66.4666 8.8 66.0266 7.424 65.1466 6.464C64.2666 5.504 62.9466 5.024 61.1866 5.024C59.4266 5.024 58.1066 5.504 57.2266 6.464C56.3466 7.424 55.9066 8.8 55.9066 10.592C55.9066 12.384 56.3466 13.76 57.2266 14.72C58.1066 15.68 59.4266 16.16 61.1866 16.16ZM61.1866 14.048C60.3066 14.048 59.6666 13.776 59.2666 13.232C58.8666 12.688 58.6666 11.808 58.6666 10.592C58.6666 9.36 58.8666 8.48 59.2666 7.952C59.6666 7.408 60.3066 7.136 61.1866 7.136C62.0666 7.136 62.7066 7.408 63.1066 7.952C63.5066 8.48 63.7066 9.36 63.7066 10.592C63.7066 11.808 63.5066 12.688 63.1066 13.232C62.7066 13.776 62.0666 14.048 61.1866 14.048ZM72.0888 16V10.064C72.0888 9.248 72.1768 8.624 72.3528 8.192C72.5288 7.76 72.7928 7.456 73.1448 7.28C73.4968 7.104 73.9288 7.016 74.4408 7.016C75.5608 7.016 76.1208 7.696 76.1208 9.056V16H78.5208V8.624C78.5208 7.392 78.1608 6.44 77.4408 5.768C76.7368 5.096 75.7608 4.76 74.5128 4.76C73.8568 4.76 73.2328 4.888 72.6408 5.144C72.0648 5.384 71.5768 5.712 71.1768 6.128L70.8248 5.2H68.4248V16H72.0888ZM81.8913 16V10.064C81.8913 9.248 81.9793 8.624 82.1553 8.192C82.3313 7.76 82.5953 7.456 82.9473 7.28C83.2993 7.104 83.7313 7.016 84.2433 7.016C85.3633 7.016 85.9233 7.696 85.9233 9.056V16H88.3233V8.624C88.3233 7.392 87.9633 6.44 87.2433 5.768C86.5393 5.096 85.5633 4.76 84.3153 4.76C83.6593 4.76 83.0353 4.888 82.4433 5.144C81.8673 5.384 81.3793 5.712 80.9793 6.128L80.6273 5.2H78.2273V16H81.8913Z" fill="white"/>
</svg>